<svg id="visual" viewBox="0 0 1600 900" width="1600" height="900" xmlns="http://www.w3.org/2000/svg" xmlns:xlink="http://www.w3.org/1999/xlink" version="1.1"><rect x="0" y="0" width="1600" height="900" fill="#F2F4F3"></rect><path d="M0 318L38.2 312.7C76.3 307.3 152.7 296.7 228.8 288.3C305 280 381 274 457.2 282C533.3 290 609.7 312 685.8 319.7C762 327.3 838 320.7 914.2 314.2C990.3 307.7 1066.7 301.3 1142.8 306.5C1219 311.7 1295 328.3 1371.2 317.2C1447.3 306 1523.7 267 1561.8 247.5L1600 228L1600 0L1561.8 0C1523.7 0 1447.3 0 1371.2 0C1295 0 1219 0 1142.8 0C1066.7 0 990.3 0 914.2 0C838 0 762 0 685.8 0C609.7 0 533.3 0 457.2 0C381 0 305 0 228.8 0C152.7 0 76.3 0 38.2 0L0 0Z" fill="#d9d9d9"></path><path d="M0 245L38.2 253.3C76.3 261.7 152.7 278.3 228.8 269.7C305 261 381 227 457.2 221.3C533.3 215.7 609.7 238.3 685.8 242.2C762 246 838 231 914.2 237.7C990.3 244.3 1066.7 272.7 1142.8 268.2C1219 263.7 1295 226.3 1371.2 212.7C1447.3 199 1523.7 209 1561.8 214L1600 219L1600 0L1561.8 0C1523.7 0 1447.3 0 1371.2 0C1295 0 1219 0 1142.8 0C1066.7 0 990.3 0 914.2 0C838 0 762 0 685.8 0C609.7 0 533.3 0 457.2 0C381 0 305 0 228.8 0C152.7 0 76.3 0 38.2 0L0 0Z" fill="#a6a1ad"></path><path d="M0 195L38.2 194.2C76.3 193.3 152.7 191.7 228.8 181C305 170.3 381 150.7 457.2 146C533.3 141.3 609.7 151.7 685.8 163.3C762 175 838 188 914.2 186.3C990.3 184.7 1066.7 168.3 1142.8 165.3C1219 162.3 1295 172.7 1371.2 172.2C1447.3 171.7 1523.7 160.3 1561.8 154.7L1600 149L1600 0L1561.8 0C1523.7 0 1447.3 0 1371.2 0C1295 0 1219 0 1142.8 0C1066.7 0 990.3 0 914.2 0C838 0 762 0 685.8 0C609.7 0 533.3 0 457.2 0C381 0 305 0 228.8 0C152.7 0 76.3 0 38.2 0L0 0Z" fill="#756c82"></path><path d="M0 99L38.2 104.2C76.3 109.3 152.7 119.7 228.8 118.5C305 117.3 381 104.7 457.2 104.3C533.3 104 609.7 116 685.8 120.2C762 124.3 838 120.7 914.2 125.8C990.3 131 1066.7 145 1142.8 153C1219 161 1295 163 1371.2 163.3C1447.3 163.7 1523.7 162.3 1561.8 161.7L1600 161L1600 0L1561.8 0C1523.7 0 1447.3 0 1371.2 0C1295 0 1219 0 1142.8 0C1066.7 0 990.3 0 914.2 0C838 0 762 0 685.8 0C609.7 0 533.3 0 457.2 0C381 0 305 0 228.8 0C152.7 0 76.3 0 38.2 0L0 0Z" fill="#473b59"></path><path d="M0 47L38.2 54.8C76.3 62.7 152.7 78.3 228.8 88.5C305 98.7 381 103.3 457.2 100.7C533.3 98 609.7 88 685.8 87.7C762 87.3 838 96.7 914.2 100.5C990.3 104.3 1066.7 102.7 1142.8 99C1219 95.3 1295 89.7 1371.2 86.8C1447.3 84 1523.7 84 1561.8 84L1600 84L1600 0L1561.8 0C1523.7 0 1447.3 0 1371.2 0C1295 0 1219 0 1142.8 0C1066.7 0 990.3 0 914.2 0C838 0 762 0 685.8 0C609.7 0 533.3 0 457.2 0C381 0 305 0 228.8 0C152.7 0 76.3 0 38.2 0L0 0Z" fill="#1b1033"></path></svg>