<svg id="visual" viewBox="0 0 900 600" width="900" height="600" xmlns="http://www.w3.org/2000/svg" xmlns:xlink="http://www.w3.org/1999/xlink" version="1.1"><rect x="0" y="0" width="900" height="600" fill="#ead9f9"></rect><path d="M0 427L7.2 433.2C14.3 439.3 28.7 451.7 43 458C57.3 464.3 71.7 464.7 86 462.7C100.3 460.7 114.7 456.3 128.8 451.8C143 447.3 157 442.7 171.2 443.2C185.3 443.7 199.7 449.3 214 455.2C228.3 461 242.7 467 257 468.8C271.3 470.7 285.7 468.3 300 468.2C314.3 468 328.7 470 343 470.2C357.3 470.3 371.7 468.7 386 468.7C400.3 468.7 414.7 470.3 428.8 466.2C443 462 457 452 471.2 444.5C485.3 437 499.7 432 514 432.7C528.3 433.3 542.7 439.7 557 444.2C571.3 448.7 585.7 451.3 600 454C614.3 456.7 628.7 459.3 643 456.3C657.3 453.3 671.7 444.7 686 442.8C700.3 441 714.7 446 728.8 445.3C743 444.7 757 438.3 771.2 440.5C785.3 442.7 799.7 453.3 814 456.2C828.3 459 842.7 454 857 451.7C871.3 449.3 885.7 449.7 892.8 449.8L900 450L900 601L892.8 601C885.7 601 871.3 601 857 601C842.7 601 828.3 601 814 601C799.7 601 785.3 601 771.2 601C757 601 743 601 728.8 601C714.7 601 700.3 601 686 601C671.7 601 657.3 601 643 601C628.7 601 614.3 601 600 601C585.7 601 571.3 601 557 601C542.7 601 528.3 601 514 601C499.7 601 485.3 601 471.2 601C457 601 443 601 428.8 601C414.7 601 400.3 601 386 601C371.7 601 357.3 601 343 601C328.7 601 314.3 601 300 601C285.7 601 271.3 601 257 601C242.7 601 228.3 601 214 601C199.7 601 185.3 601 171.2 601C157 601 143 601 128.8 601C114.7 601 100.3 601 86 601C71.7 601 57.3 601 43 601C28.7 601 14.3 601 7.2 601L0 601Z" fill="#ead9f9"></path><path d="M0 472L7.2 473.5C14.3 475 28.7 478 43 479.2C57.3 480.3 71.7 479.7 86 481.2C100.3 482.7 114.7 486.3 128.8 483C143 479.7 157 469.3 171.2 466.5C185.3 463.7 199.7 468.3 214 472.8C228.3 477.3 242.7 481.7 257 480.2C271.3 478.7 285.7 471.3 300 468.7C314.3 466 328.7 468 343 469.3C357.3 470.7 371.7 471.3 386 472C400.3 472.7 414.7 473.3 428.8 472.3C443 471.3 457 468.7 471.2 466.7C485.3 464.7 499.7 463.3 514 461.5C528.3 459.7 542.7 457.3 557 456.3C571.3 455.3 585.7 455.7 600 461.2C614.3 466.7 628.7 477.3 643 479.8C657.3 482.3 671.7 476.7 686 473.8C700.3 471 714.7 471 728.8 468.7C743 466.3 757 461.7 771.2 460C785.3 458.3 799.7 459.7 814 459.5C828.3 459.3 842.7 457.7 857 460.5C871.3 463.3 885.7 470.7 892.8 474.3L900 478L900 601L892.8 601C885.7 601 871.3 601 857 601C842.7 601 828.3 601 814 601C799.7 601 785.3 601 771.2 601C757 601 743 601 728.8 601C714.7 601 700.3 601 686 601C671.7 601 657.3 601 643 601C628.7 601 614.3 601 600 601C585.7 601 571.3 601 557 601C542.7 601 528.3 601 514 601C499.7 601 485.3 601 471.2 601C457 601 443 601 428.8 601C414.7 601 400.3 601 386 601C371.7 601 357.3 601 343 601C328.7 601 314.3 601 300 601C285.7 601 271.3 601 257 601C242.7 601 228.3 601 214 601C199.7 601 185.3 601 171.2 601C157 601 143 601 128.8 601C114.7 601 100.3 601 86 601C71.7 601 57.3 601 43 601C28.7 601 14.3 601 7.2 601L0 601Z" fill="#bda2d3"></path><path d="M0 495L7.2 494.5C14.3 494 28.7 493 43 496C57.3 499 71.7 506 86 509.7C100.3 513.3 114.7 513.7 128.8 510.3C143 507 157 500 171.2 500.2C185.3 500.3 199.7 507.7 214 511.5C228.3 515.3 242.7 515.7 257 514.7C271.3 513.7 285.7 511.3 300 507.2C314.3 503 328.7 497 343 493.3C357.3 489.7 371.7 488.3 386 487.8C400.3 487.3 414.7 487.7 428.8 493C443 498.3 457 508.7 471.2 514.2C485.3 519.7 499.7 520.3 514 520.3C528.3 520.3 542.7 519.7 557 516.3C571.3 513 585.7 507 600 504.8C614.3 502.7 628.7 504.3 643 503.5C657.3 502.7 671.7 499.3 686 498.7C700.3 498 714.7 500 728.8 500C743 500 757 498 771.2 498.7C785.3 499.3 799.7 502.7 814 501.2C828.3 499.7 842.7 493.3 857 496C871.3 498.7 885.7 510.3 892.8 516.2L900 522L900 601L892.8 601C885.7 601 871.3 601 857 601C842.7 601 828.3 601 814 601C799.7 601 785.3 601 771.2 601C757 601 743 601 728.8 601C714.7 601 700.3 601 686 601C671.7 601 657.3 601 643 601C628.7 601 614.3 601 600 601C585.7 601 571.3 601 557 601C542.7 601 528.3 601 514 601C499.7 601 485.3 601 471.2 601C457 601 443 601 428.8 601C414.7 601 400.3 601 386 601C371.7 601 357.3 601 343 601C328.7 601 314.3 601 300 601C285.7 601 271.3 601 257 601C242.7 601 228.3 601 214 601C199.7 601 185.3 601 171.2 601C157 601 143 601 128.8 601C114.7 601 100.3 601 86 601C71.7 601 57.3 601 43 601C28.7 601 14.3 601 7.2 601L0 601Z" fill="#926eae"></path><path d="M0 531L7.2 528.7C14.3 526.3 28.7 521.7 43 520.3C57.3 519 71.7 521 86 521.2C100.3 521.3 114.7 519.7 128.8 520C143 520.3 157 522.7 171.2 525.7C185.3 528.7 199.7 532.3 214 533C228.3 533.7 242.7 531.3 257 528.2C271.3 525 285.7 521 300 522C314.3 523 328.7 529 343 528.8C357.3 528.7 371.7 522.3 386 520.3C400.3 518.3 414.7 520.7 428.8 520.7C443 520.7 457 518.3 471.2 517.3C485.3 516.3 499.7 516.7 514 521.3C528.3 526 542.7 535 557 535C571.3 535 585.7 526 600 523.5C614.3 521 628.7 525 643 528.3C657.3 531.7 671.7 534.3 686 533.8C700.3 533.3 714.7 529.7 728.8 529.2C743 528.7 757 531.3 771.2 531.8C785.3 532.3 799.7 530.7 814 530.2C828.3 529.7 842.7 530.3 857 532C871.3 533.7 885.7 536.3 892.8 537.7L900 539L900 601L892.8 601C885.7 601 871.3 601 857 601C842.7 601 828.3 601 814 601C799.7 601 785.3 601 771.2 601C757 601 743 601 728.8 601C714.7 601 700.3 601 686 601C671.7 601 657.3 601 643 601C628.7 601 614.3 601 600 601C585.7 601 571.3 601 557 601C542.7 601 528.3 601 514 601C499.7 601 485.3 601 471.2 601C457 601 443 601 428.8 601C414.7 601 400.3 601 386 601C371.7 601 357.3 601 343 601C328.7 601 314.3 601 300 601C285.7 601 271.3 601 257 601C242.7 601 228.3 601 214 601C199.7 601 185.3 601 171.2 601C157 601 143 601 128.8 601C114.7 601 100.3 601 86 601C71.7 601 57.3 601 43 601C28.7 601 14.3 601 7.2 601L0 601Z" fill="#673c8a"></path><path d="M0 565L7.2 563.8C14.3 562.7 28.7 560.3 43 559.3C57.3 558.3 71.7 558.7 86 559.2C100.3 559.7 114.7 560.3 128.8 560.5C143 560.7 157 560.3 171.2 561.2C185.3 562 199.7 564 214 563.5C228.3 563 242.7 560 257 558.5C271.3 557 285.7 557 300 558.3C314.3 559.7 328.7 562.3 343 561.7C357.3 561 371.7 557 386 557.7C400.3 558.3 414.7 563.7 428.8 566.3C443 569 457 569 471.2 566C485.3 563 499.7 557 514 554.2C528.3 551.3 542.7 551.7 557 554.3C571.3 557 585.7 562 600 564.7C614.3 567.3 628.7 567.7 643 568.3C657.3 569 671.7 570 686 568.7C700.3 567.3 714.7 563.7 728.8 562.8C743 562 757 564 771.2 563C785.3 562 799.7 558 814 556C828.3 554 842.7 554 857 554.7C871.3 555.3 885.7 556.7 892.8 557.3L900 558L900 601L892.8 601C885.7 601 871.3 601 857 601C842.7 601 828.3 601 814 601C799.7 601 785.3 601 771.2 601C757 601 743 601 728.8 601C714.7 601 700.3 601 686 601C671.7 601 657.3 601 643 601C628.7 601 614.3 601 600 601C585.7 601 571.3 601 557 601C542.7 601 528.3 601 514 601C499.7 601 485.3 601 471.2 601C457 601 443 601 428.8 601C414.7 601 400.3 601 386 601C371.7 601 357.3 601 343 601C328.7 601 314.3 601 300 601C285.7 601 271.3 601 257 601C242.7 601 228.3 601 214 601C199.7 601 185.3 601 171.2 601C157 601 143 601 128.8 601C114.7 601 100.3 601 86 601C71.7 601 57.3 601 43 601C28.7 601 14.3 601 7.2 601L0 601Z" fill="#3c0366"></path></svg>