<svg id="visual" viewBox="0 0 1600 900" width="1600" height="900" xmlns="http://www.w3.org/2000/svg" xmlns:xlink="http://www.w3.org/1999/xlink" version="1.1"><rect x="0" y="0" width="1600" height="900" fill="#F2F4F3"></rect><path d="M0 648L38.2 638.5C76.3 629 152.7 610 228.8 593.3C305 576.7 381 562.3 457.2 566.5C533.3 570.7 609.7 593.3 685.8 599.3C762 605.3 838 594.7 914.2 581.7C990.3 568.7 1066.7 553.3 1142.8 548.5C1219 543.7 1295 549.3 1371.2 550.8C1447.3 552.3 1523.7 549.7 1561.8 548.3L1600 547L1600 901L1561.8 901C1523.7 901 1447.3 901 1371.2 901C1295 901 1219 901 1142.8 901C1066.7 901 990.3 901 914.2 901C838 901 762 901 685.8 901C609.7 901 533.3 901 457.2 901C381 901 305 901 228.8 901C152.7 901 76.3 901 38.2 901L0 901Z" fill="#d9d9d9"></path><path d="M0 702L38.2 700.2C76.3 698.3 152.7 694.7 228.8 690.8C305 687 381 683 457.2 677.5C533.3 672 609.7 665 685.8 659.7C762 654.3 838 650.7 914.2 655.8C990.3 661 1066.7 675 1142.8 681C1219 687 1295 685 1371.2 689.8C1447.3 694.7 1523.7 706.3 1561.8 712.2L1600 718L1600 901L1561.8 901C1523.7 901 1447.3 901 1371.2 901C1295 901 1219 901 1142.8 901C1066.7 901 990.3 901 914.2 901C838 901 762 901 685.8 901C609.7 901 533.3 901 457.2 901C381 901 305 901 228.8 901C152.7 901 76.3 901 38.2 901L0 901Z" fill="#a6a1ad"></path><path d="M0 673L38.2 675.3C76.3 677.7 152.7 682.3 228.8 690.8C305 699.3 381 711.7 457.2 710.2C533.3 708.7 609.7 693.3 685.8 683C762 672.7 838 667.3 914.2 678.3C990.3 689.3 1066.7 716.7 1142.8 720.7C1219 724.7 1295 705.3 1371.2 697.5C1447.3 689.7 1523.7 693.3 1561.8 695.2L1600 697L1600 901L1561.8 901C1523.7 901 1447.3 901 1371.2 901C1295 901 1219 901 1142.8 901C1066.7 901 990.3 901 914.2 901C838 901 762 901 685.8 901C609.7 901 533.3 901 457.2 901C381 901 305 901 228.8 901C152.7 901 76.3 901 38.2 901L0 901Z" fill="#756c82"></path><path d="M0 730L38.2 739.5C76.3 749 152.7 768 228.8 767.3C305 766.7 381 746.3 457.2 735.7C533.3 725 609.7 724 685.8 727C762 730 838 737 914.2 750.8C990.3 764.7 1066.7 785.3 1142.8 792C1219 798.7 1295 791.3 1371.2 778.7C1447.3 766 1523.7 748 1561.8 739L1600 730L1600 901L1561.8 901C1523.7 901 1447.3 901 1371.2 901C1295 901 1219 901 1142.8 901C1066.7 901 990.3 901 914.2 901C838 901 762 901 685.8 901C609.7 901 533.3 901 457.2 901C381 901 305 901 228.8 901C152.7 901 76.3 901 38.2 901L0 901Z" fill="#473b59"></path><path d="M0 840L38.2 841.7C76.3 843.3 152.7 846.7 228.8 850C305 853.3 381 856.7 457.2 857C533.3 857.3 609.7 854.7 685.8 847.3C762 840 838 828 914.2 818C990.3 808 1066.7 800 1142.8 805.8C1219 811.7 1295 831.3 1371.2 831.7C1447.3 832 1523.7 813 1561.8 803.5L1600 794L1600 901L1561.8 901C1523.7 901 1447.3 901 1371.2 901C1295 901 1219 901 1142.8 901C1066.7 901 990.3 901 914.2 901C838 901 762 901 685.8 901C609.7 901 533.3 901 457.2 901C381 901 305 901 228.8 901C152.7 901 76.3 901 38.2 901L0 901Z" fill="#1b1033"></path></svg>